<?xml version="1.0" encoding="utf-8"?>
<!-- Generator: Adobe Illustrator 19.1.0, SVG Export Plug-In . SVG Version: 6.00 Build 0)  -->
<svg version="1.1" id="Layer_1" xmlns="http://www.w3.org/2000/svg" xmlns:xlink="http://www.w3.org/1999/xlink" x="0px" y="0px"
	 width="30px" height="30px" viewBox="0 0 30 30" enable-background="new 0 0 30 30" xml:space="preserve">
<g>
	<path fill="#B3BABE" d="M27,15c0,6.6-5.4,12-12,12C8.4,27,3,21.6,3,15S8.4,3,15,3C21.6,3,27,8.4,27,15"/>
	<path fill="#FFFFFF" d="M21.8,11.7c-0.2,0.1-0.9,0.4-1.6,0.4c0.4-0.2,1-0.9,1.2-1.5c-0.4,0.3-1.3,0.6-1.7,0.6v0
		c-0.5-0.5-1.2-0.9-2-0.9c-1.5,0-2.8,1.3-2.8,2.8c0,0.2,0,0.4,0.1,0.6h0c-2.1-0.1-4.4-1.1-5.8-2.9C8.3,12.4,9,14,10,14.6
		c-0.3,0-0.9,0-1.2-0.3c0,1,0.5,2.3,2.2,2.7c-0.3,0.2-0.9,0.1-1.2,0.1C9.8,18,11,19,12.2,19c-0.5,0.5-2.1,1.5-4,1.2
		c1.3,0.8,2.8,1.2,4.4,1.2c4.5,0,8-3.7,7.9-8.2c0,0,0,0,0,0c0,0,0,0,0,0c0,0,0,0,0,0C20.9,12.9,21.4,12.4,21.8,11.7"/>
</g>
</svg>
