<?xml version="1.0" encoding="utf-8"?>
<!-- Generator: Adobe Illustrator 19.1.0, SVG Export Plug-In . SVG Version: 6.00 Build 0)  -->
<svg version="1.1" id="Layer_1" xmlns="http://www.w3.org/2000/svg" xmlns:xlink="http://www.w3.org/1999/xlink" x="0px" y="0px"
	 width="30px" height="30px" viewBox="0 0 30 30" style="enable-background:new 0 0 30 30;" xml:space="preserve">
<style type="text/css">
	.st0{fill:#B2B9BD;}
	.st1{fill:none;stroke:#FFFFFF;stroke-miterlimit:10;}
	.st2{fill:#FFFFFF;}
</style>
<g>
	<path class="st0" d="M27,15c0,6.6-5.4,12-12,12S3,21.6,3,15S8.4,3,15,3S27,8.4,27,15"/>
</g>
<line class="st1" x1="13" y1="15.2" x2="8.1" y2="20.2"/>
<line class="st1" x1="21.9" y1="20.2" x2="17" y2="15.2"/>
<path class="st1" d="M8.1,10.9l6.4,5.6c0.3,0.3,0.8,0.3,1,0l6.4-5.6"/>
<g>
	<path class="st2" d="M21.6,11.2v8.5H8.4v-8.5H21.6 M21.6,10.6H8.4c-0.4,0-0.7,0.3-0.7,0.7v8.5c0,0.4,0.3,0.7,0.7,0.7h13.1
		c0.4,0,0.7-0.3,0.7-0.7v-8.5C22.2,10.8,22,10.6,21.6,10.6L21.6,10.6z"/>
</g>
</svg>
