<?xml version="1.0" encoding="utf-8"?>
<!-- Generator: Adobe Illustrator 19.1.0, SVG Export Plug-In . SVG Version: 6.00 Build 0)  -->
<svg version="1.1" id="Layer_1" xmlns="http://www.w3.org/2000/svg" xmlns:xlink="http://www.w3.org/1999/xlink" x="0px" y="0px"
	 viewBox="244 105.8 180 35" enable-background="new 244 105.8 180 35" xml:space="preserve">
<g>
	<polygon fill="#46A5DC" points="245,128.1 245,111 249.6,111 249.6,123.5 256.3,123.5 256.3,128.1 	"/>
	<path fill="#46A5DC" d="M268,128.1v-3.4h-4.2v3.4h-4.5v-12.5c0-2.5,2-4.5,4.5-4.5h4.1c2.5,0,4.6,2,4.6,4.6v12.5H268z M268,115.6
		h-4.2v4.6h4.2V115.6z"/>
	<path fill="#FFFFFF" d="M284.7,128.1h-8.4v-4.3h8.4v-2.1h-4.1c-2.5,0-4.6-2-4.6-4.5v-1.6c0-2.5,2-4.6,4.6-4.6h7.9v4.3h-7.9v1.8h4.1
		c2.5,0,4.6,2,4.6,4.5v1.8C289.2,126.1,287.2,128.1,284.7,128.1"/>
	<rect x="292.5" y="111" fill="#FFFFFF" width="4.6" height="17.1"/>
	<path fill="#FFFFFF" d="M343.4,128.1v-3.4h-4.2v3.4h-4.5v-12.5c0-2.5,2-4.5,4.5-4.5h4.1c2.5,0,4.6,2,4.6,4.6v12.5H343.4z
		 M343.4,115.6h-4.2v4.6h4.2V115.6z"/>
	<polygon fill="#46A5DC" points="361.7,128.1 355.3,128.1 350.3,111 355,111 358.5,123.7 362,111 366.6,111 	"/>
	<path fill="#46A5DC" d="M377.8,128.1v-3.4h-4.2v3.4H369v-12.5c0-2.5,2-4.5,4.5-4.5h4.1c2.5,0,4.6,2,4.6,4.6v12.5H377.8z
		 M377.8,115.6h-4.2v4.6h4.2V115.6z"/>
	<path fill="#46A5DC" d="M390.7,128.1c-2.5,0-4.6-2-4.6-4.5v-8c0-2.5,2-4.6,4.6-4.6h6.8v4.5h-6.8v8h6.8v4.6H390.7z"/>
	<path fill="#46A5DC" d="M418.5,128.1v-3.4h-4.2v3.4h-4.5v-12.5c0-2.5,2-4.5,4.5-4.5h4.1c2.5,0,4.6,2,4.6,4.6v12.5H418.5z
		 M418.5,115.6h-4.2v4.6h4.2V115.6z"/>
	<polygon fill="#FFFFFF" points="313.8,121.9 313.9,132.6 314.7,132.6 314.8,122.7 323,124.8 323.2,135.1 324.1,135.2 324.2,124.8 
		330.8,122.5 330.9,131 331.7,131 332,107.9 323.1,106.2 323.2,119.1 	"/>
	<polygon fill="#FFFFFF" points="319.3,126.5 319.2,137.8 318.4,137.9 318.3,127.4 309.4,129.7 309.2,140.5 308.3,140.5 
		308.1,129.5 301.5,127.2 301.4,137.3 300.5,137.1 300.2,109.2 309.6,111.6 309.5,123.6 	"/>
	<path fill="#46A5DC" d="M401,116.4h4.6v11.7H401V116.4z M404.7,114.6h-3.5l1.8-3.6h4.6L404.7,114.6z"/>
</g>
</svg>
