<?xml version="1.0" encoding="utf-8"?>
<!-- Generator: Adobe Illustrator 19.1.0, SVG Export Plug-In . SVG Version: 6.00 Build 0)  -->
<svg version="1.1" id="Layer_1" xmlns="http://www.w3.org/2000/svg" xmlns:xlink="http://www.w3.org/1999/xlink" x="0px" y="0px"
	 viewBox="244 1 180 35" enable-background="new 244 1 180 35" xml:space="preserve">
<g>
	<polygon fill="#46A5DC" points="245,23.2 245,6.2 249.6,6.2 249.6,18.7 256.3,18.7 256.3,23.2 	"/>
	<path fill="#46A5DC" d="M268,23.2v-3.4h-4.2v3.4h-4.5V10.7c0-2.5,2-4.5,4.5-4.5h4.1c2.5,0,4.6,2,4.6,4.6v12.5H268z M268,10.7h-4.2
		v4.6h4.2V10.7z"/>
	<path d="M284.7,23.2h-8.4V19h8.4v-2.1h-4.1c-2.5,0-4.6-2-4.6-4.5v-1.6c0-2.5,2-4.6,4.6-4.6h7.9v4.3h-7.9v1.8h4.1
		c2.5,0,4.6,2,4.6,4.5v1.8C289.2,21.2,287.2,23.2,284.7,23.2"/>
	<rect x="292.5" y="6.2" width="4.6" height="17.1"/>
	<path d="M343.4,23.2v-3.4h-4.2v3.4h-4.5V10.7c0-2.5,2-4.5,4.5-4.5h4.1c2.5,0,4.6,2,4.6,4.6v12.5H343.4z M343.4,10.7h-4.2v4.6h4.2
		V10.7z"/>
	<polygon fill="#46A5DC" points="361.7,23.2 355.3,23.2 350.3,6.2 355,6.2 358.5,18.9 362,6.2 366.6,6.2 	"/>
	<path fill="#46A5DC" d="M377.8,23.2v-3.4h-4.2v3.4H369V10.7c0-2.5,2-4.5,4.5-4.5h4.1c2.5,0,4.6,2,4.6,4.6v12.5H377.8z M377.8,10.7
		h-4.2v4.6h4.2V10.7z"/>
	<path fill="#46A5DC" d="M390.7,23.2c-2.5,0-4.6-2-4.6-4.5v-8c0-2.5,2-4.6,4.6-4.6h6.8v4.5h-6.8v8h6.8v4.6H390.7z"/>
	<path fill="#46A5DC" d="M418.5,23.2v-3.4h-4.2v3.4h-4.5V10.7c0-2.5,2-4.5,4.5-4.5h4.1c2.5,0,4.6,2,4.6,4.6v12.5H418.5z M418.5,10.7
		h-4.2v4.6h4.2V10.7z"/>
	<polygon points="313.8,17 313.9,27.7 314.7,27.8 314.8,17.9 323,20 323.2,30.3 324.1,30.3 324.2,19.9 330.8,17.7 330.9,26.2 
		331.7,26.2 332,3 323.1,1.3 323.2,14.2 	"/>
	<polygon points="319.3,21.7 319.2,32.9 318.4,33 318.3,22.5 309.4,24.8 309.2,35.6 308.3,35.6 308.1,24.7 301.5,22.4 301.4,32.5 
		300.5,32.3 300.2,4.4 309.6,6.7 309.5,18.8 	"/>
	<path fill="#46A5DC" d="M401,11.6h4.6v11.7H401V11.6z M404.7,9.8h-3.5l1.8-3.6h4.6L404.7,9.8z"/>
</g>
</svg>
