<?xml version="1.0" encoding="utf-8"?>
<!-- Generator: Adobe Illustrator 19.1.0, SVG Export Plug-In . SVG Version: 6.00 Build 0)  -->
<svg version="1.1" id="Layer_1" xmlns="http://www.w3.org/2000/svg" xmlns:xlink="http://www.w3.org/1999/xlink" x="0px" y="0px"
	 width="30px" height="30px" viewBox="0 0 30 30" style="enable-background:new 0 0 30 30;" xml:space="preserve">
<style type="text/css">
	.st0{fill:#B2B9BD;}
	.st1{fill:#FFFFFF;}
</style>
<g>
	<g>
		<path class="st0" d="M27,15c0,6.6-5.4,12-12,12S3,21.6,3,15S8.4,3,15,3S27,8.4,27,15"/>
	</g>
	<g>
		<path class="st1" d="M18.1,16.4c-0.2-0.1-1-0.5-1.2-0.6c-0.2-0.1-0.2-0.1-0.4,0.1c-0.1,0.2-0.4,0.6-0.6,0.7
			c-0.1,0.1-0.2,0.2-0.4,0.1c-0.2-0.1-0.7-0.2-1.4-0.8c-0.5-0.5-0.8-1-1-1.2c0.1-0.2,0.2-0.3,0.2-0.4s0.2-0.2,0.2-0.3
			c0.1-0.1,0.1-0.2,0.2-0.2c0.1-0.1,0-0.2,0-0.3c-0.1-0.1-0.4-1-0.6-1.3c-0.1-0.3-0.2-0.2-0.3-0.2s-0.2,0-0.3,0
			c-0.1,0-0.3,0.1-0.5,0.2c-0.2,0.1-0.6,0.5-0.6,1.4s0.7,1.7,0.7,1.8c0.1,0.1,1.2,1.8,3,2.6c0.4,0.2,0.7,0.2,1,0.3
			c0.4,0.2,0.8,0.1,1.1,0.1c0.3-0.1,1-0.4,1.2-0.8c0.2-0.4,0.2-0.7,0.1-0.8C18.5,16.5,18.4,16.5,18.1,16.4 M15,20.7L15,20.7
			c-1.1,0-2.1-0.2-2.9-0.8l-0.2-0.2l-2.2,0.6l0.6-2.2l-0.2-0.2c-0.6-0.9-0.9-2-0.9-3.1C9.2,11.7,11.8,9,15,9c1.6,0,3,0.6,4.1,1.7
			s1.7,2.6,1.7,4.1C20.8,18.1,18.2,20.7,15,20.7 M20,10C18.6,8.7,16.9,8,15.1,8c-3.8,0-7,3.1-7,7c0,1.2,0.3,2.4,0.9,3.5l-1,3.6
			l3.6-0.9c1,0.6,2.2,0.8,3.3,0.8l0,0l0,0c3.8,0,7-3.1,7-7C22,13.1,21.2,11.4,20,10"/>
	</g>
</g>
</svg>
