<svg xmlns="http://www.w3.org/2000/svg" viewBox="0 0 120 32.47"><defs><style>.cls-1{fill:#00537f;}.cls-2{fill:#a6d164;}.cls-3{fill:#fff;}</style></defs><title>logo-coment</title><g id="Capa_2" data-name="Capa 2"><g id="Capa_1-2" data-name="Capa 1"><rect class="cls-1" x="14" y="6.67" width="106" height="19.14"/><circle class="cls-2" cx="16.24" cy="16.24" r="16.24"/><path class="cls-1" d="M13.58,13.64a2.74,2.74,0,0,1,0-.59c0-.51,0-1,.09-1.57s0-1.23.08-1.87c0-.46,0-.93.09-1.4,0-.63.08-1.23.08-1.86a3.67,3.67,0,0,1,.13-1l.12-.25a.91.91,0,0,1,1.36-.3,1.46,1.46,0,0,1,.43.6,5,5,0,0,1,.25,1c.08.85.08,1.74.08,2.59v2.08a3.75,3.75,0,0,0,.17,1.14c.05.09.09.21.13.3a.22.22,0,0,0,.38,0,.68.68,0,0,0,.21-.29,5.74,5.74,0,0,0,.47-1.06c.3-.85.55-1.74.76-2.59s.34-1.48.51-2.21A6.34,6.34,0,0,1,19.47,5a2.59,2.59,0,0,1,.47-.63.88.88,0,0,1,1-.17.52.52,0,0,1,.34.34,2.83,2.83,0,0,1,.13.63,10,10,0,0,1-.09,1.23,19.54,19.54,0,0,1-.55,2.46c-.17.64-.38,1.23-.51,1.87A10.92,10.92,0,0,0,20,12.41a3.88,3.88,0,0,0,0,.68.34.34,0,0,0,.09.21.4.4,0,0,0,.51.13,1.38,1.38,0,0,0,.34-.3,3.89,3.89,0,0,0,.55-.89,15.14,15.14,0,0,0,1-2.63,12.1,12.1,0,0,1,.64-1.74,2.64,2.64,0,0,1,.51-.72,1,1,0,0,1,.5-.29.64.64,0,0,1,.81.55,1.67,1.67,0,0,1,0,.8,10.22,10.22,0,0,1-.59,2.25c-.34,1-.72,1.91-1.06,2.88-.21.64-.43,1.23-.6,1.87a3.86,3.86,0,0,0-.08.72c0,.08,0,.17,0,.21a.29.29,0,0,0,.38.21,1.23,1.23,0,0,0,.43-.21,6.87,6.87,0,0,0,.76-.85,9.58,9.58,0,0,0,1.1-1.82,9.31,9.31,0,0,1,1.06-1.7,6.89,6.89,0,0,1,.51-.55c.09,0,.17-.12.26-.12a.52.52,0,0,1,.72.38,1.4,1.4,0,0,1-.09.72,5.49,5.49,0,0,1-.59,1.31c-.13.21-.21.38-.34.6a37.22,37.22,0,0,0-1.78,3.43c-.34.76-.68,1.48-1,2.29a20.1,20.1,0,0,1-.68,2.42,24.09,24.09,0,0,1-2.16,4.19,5.06,5.06,0,0,1-.89,1.06,2.87,2.87,0,0,1-1.52.77,6,6,0,0,1-1.74-.05c-.47-.08-.94-.21-1.4-.29a3.64,3.64,0,0,0-.72-.09c-.43,0-.85,0-1.32,0a6.21,6.21,0,0,1-2.33-.55,4.67,4.67,0,0,1-1.78-1.49,13.29,13.29,0,0,1-1.4-2.54c-.17-.47-.29-.93-.46-1.36l-.26-.76a14.59,14.59,0,0,1-.38-2c0-.42-.08-.8-.08-1.23a3.85,3.85,0,0,0,0-.68,3.51,3.51,0,0,0-.68-1.78c-.09-.08-.47-.51-.6-.63a5.9,5.9,0,0,1-.84-1.15A1.94,1.94,0,0,1,4.59,13a.64.64,0,0,1,.34-.68,4.64,4.64,0,0,1,.64-.17,3,3,0,0,1,2.54,1,4.75,4.75,0,0,1,1.23,2.33,5.46,5.46,0,0,1,.13,1.66A9.31,9.31,0,0,0,9.55,19a5.09,5.09,0,0,0,.72,1.87.35.35,0,0,1,.09.17,1.7,1.7,0,0,1,.34.89,15.93,15.93,0,0,0,.42,2.42,5.61,5.61,0,0,0,.3.93,1.26,1.26,0,0,0,.21.34.5.5,0,0,0,.17.12.33.33,0,0,0,.51-.12,2.36,2.36,0,0,0,.12-.51,5.15,5.15,0,0,0-.12-1.1c-.13-.6-.34-1.19-.38-1.45a1.19,1.19,0,0,1,.08-.72.14.14,0,0,1,.17,0,.4.4,0,0,1,.17.17,6.73,6.73,0,0,1,.38.68c.3.72.59,1.4.93,2.12A4.88,4.88,0,0,0,14.34,26c.09.08.17.21.26.3a.21.21,0,0,0,.17.08.28.28,0,0,0,.42-.21,1.51,1.51,0,0,0,0-.6,8.71,8.71,0,0,0-.55-1.73c-.21-.47-.43-.94-.64-1.44a.9.9,0,0,1-.08-.47.18.18,0,0,1,.29-.17.41.41,0,0,1,.22.17,2.33,2.33,0,0,1,.46.63,20.39,20.39,0,0,0,1.36,2.51,2.76,2.76,0,0,0,.64.76.56.56,0,0,0,.42.21c.13,0,.21,0,.25-.21a1.15,1.15,0,0,0,0-.55A11.72,11.72,0,0,0,17,23.77c-.38-.89-.81-1.74-1.23-2.54,0-.09-.08-.21-.13-.3s.13-.34.34-.25a.6.6,0,0,1,.34.25,8.57,8.57,0,0,1,1,1.06c.34.43.72.85,1.06,1.23a2.08,2.08,0,0,0,.47.42.81.81,0,0,0,.46.17.54.54,0,0,0,.55-.67,1.34,1.34,0,0,0-.25-.51c-.26-.38-2.12-2.5-2.59-3.27a7.83,7.83,0,0,1-.76-1.86,1.87,1.87,0,0,1,0-.47c0-.25.17-.38.42-.3a3.39,3.39,0,0,1,.51.17c.38.17.76.39,1.14.56a2.78,2.78,0,0,0,1,.29,1.56,1.56,0,0,0,1-.21.42.42,0,0,0,.05-.76,1.52,1.52,0,0,0-.72-.3,4.33,4.33,0,0,1-1.91-.81L16.72,15a5.73,5.73,0,0,0-2.08-.94A2,2,0,0,0,13.58,13.64Z"/><path class="cls-3" d="M42.79,11.45a.49.49,0,0,1-.14.17.31.31,0,0,1-.19.06.58.58,0,0,1-.3-.13c-.11-.08-.26-.18-.43-.28a3.91,3.91,0,0,0-.61-.28,2.86,2.86,0,0,0-.88-.13,2.44,2.44,0,0,0-.85.14,1.7,1.7,0,0,0-.62.35,1.49,1.49,0,0,0-.38.52,1.75,1.75,0,0,0-.12.65,1.21,1.21,0,0,0,.22.75,1.91,1.91,0,0,0,.58.5,4.13,4.13,0,0,0,.82.36l.94.32a9.42,9.42,0,0,1,.93.36,3.27,3.27,0,0,1,.82.52,2.34,2.34,0,0,1,.58.77,2.47,2.47,0,0,1,.22,1.11,3.6,3.6,0,0,1-.24,1.32,3,3,0,0,1-.69,1.07,3.25,3.25,0,0,1-1.13.71,4.15,4.15,0,0,1-1.51.26,4.59,4.59,0,0,1-1.89-.37,4.47,4.47,0,0,1-1.45-1l.41-.69a.47.47,0,0,1,.15-.13.33.33,0,0,1,.19-.06.46.46,0,0,1,.22.08l.28.2.36.26a3.14,3.14,0,0,0,.45.26,2.92,2.92,0,0,0,.59.19,2.77,2.77,0,0,0,.73.08,2.62,2.62,0,0,0,.92-.14,1.91,1.91,0,0,0,.68-.4,1.65,1.65,0,0,0,.43-.61,2,2,0,0,0,.15-.8,1.39,1.39,0,0,0-.22-.79,1.82,1.82,0,0,0-.58-.52,4.13,4.13,0,0,0-.82-.35l-.94-.3c-.31-.1-.63-.22-.93-.35a3.27,3.27,0,0,1-.82-.52,2.5,2.5,0,0,1-.58-.8,2.81,2.81,0,0,1-.22-1.19,2.72,2.72,0,0,1,.22-1.09,2.76,2.76,0,0,1,.64-.94,3.14,3.14,0,0,1,1-.66,3.82,3.82,0,0,1,1.41-.24,4.45,4.45,0,0,1,1.62.28,3.79,3.79,0,0,1,1.29.82Z"/><path class="cls-3" d="M46.05,12.91v4.81a2,2,0,0,0,.4,1.33,1.45,1.45,0,0,0,1.19.46,2.29,2.29,0,0,0,1.09-.27,3.26,3.26,0,0,0,1-.77V12.91H51v7.54h-.78a.34.34,0,0,1-.36-.27l-.11-.81a4,4,0,0,1-1.1.87,3.11,3.11,0,0,1-2.49.13,2.19,2.19,0,0,1-.79-.58,2.59,2.59,0,0,1-.48-.9,3.9,3.9,0,0,1-.16-1.17V12.91Zm4-3.24-1.73,1.92a1,1,0,0,1-.21.16.58.58,0,0,1-.25.05h-.79L48.19,10a.94.94,0,0,1,.23-.25.7.7,0,0,1,.36-.07Z"/><path class="cls-3" d="M53,23V12.91h.8a.32.32,0,0,1,.35.28l.11.89a3.81,3.81,0,0,1,1.11-.94,2.81,2.81,0,0,1,1.43-.36,2.65,2.65,0,0,1,1.18.25,2.28,2.28,0,0,1,.9.73A3.68,3.68,0,0,1,59.41,15a6.45,6.45,0,0,1,.2,1.66,5.55,5.55,0,0,1-.22,1.56,3.85,3.85,0,0,1-.65,1.24,3,3,0,0,1-1,.82,3.16,3.16,0,0,1-2.55.08,2.79,2.79,0,0,1-.87-.66V23Zm3.37-9.16a2.16,2.16,0,0,0-1.14.3,3.33,3.33,0,0,0-.89.84v3.65a2.12,2.12,0,0,0,.79.69,2.34,2.34,0,0,0,1,.2,1.89,1.89,0,0,0,1.62-.75,3.51,3.51,0,0,0,.57-2.15,5.14,5.14,0,0,0-.13-1.26,2.49,2.49,0,0,0-.38-.87,1.42,1.42,0,0,0-.6-.49A1.92,1.92,0,0,0,56.32,13.85Z"/><path class="cls-3" d="M64.24,12.79a3.39,3.39,0,0,1,1.25.23,2.84,2.84,0,0,1,1,.65,3.08,3.08,0,0,1,.66,1.06,4,4,0,0,1,.24,1.43.81.81,0,0,1-.07.42.27.27,0,0,1-.25.11H62a4.14,4.14,0,0,0,.19,1.24,2.49,2.49,0,0,0,.49.88,2,2,0,0,0,.75.53,2.45,2.45,0,0,0,1,.17,2.72,2.72,0,0,0,.86-.11,4.35,4.35,0,0,0,.63-.25c.17-.09.31-.17.43-.25a.58.58,0,0,1,.3-.12.32.32,0,0,1,.26.13l.37.49a2.64,2.64,0,0,1-.59.51,3.3,3.3,0,0,1-.73.36,4.4,4.4,0,0,1-.81.22,5.81,5.81,0,0,1-.83.07,3.77,3.77,0,0,1-1.44-.27,3.07,3.07,0,0,1-1.14-.77A3.42,3.42,0,0,1,61,18.26a5.15,5.15,0,0,1-.27-1.73A4.36,4.36,0,0,1,61,15.06a3.29,3.29,0,0,1,.7-1.19,3.13,3.13,0,0,1,1.1-.79A3.69,3.69,0,0,1,64.24,12.79Zm0,1a2,2,0,0,0-1.51.55,2.6,2.6,0,0,0-.69,1.54H66.2a2.86,2.86,0,0,0-.13-.85,2.15,2.15,0,0,0-.38-.66,1.78,1.78,0,0,0-.61-.43A2.09,2.09,0,0,0,64.27,13.77Z"/><path class="cls-3" d="M68.86,20.45V12.91h.76a.47.47,0,0,1,.3.08.57.57,0,0,1,.11.29l.08,1.14A3.45,3.45,0,0,1,71,13.21a1.94,1.94,0,0,1,1.28-.43,2.31,2.31,0,0,1,.46.05,1.34,1.34,0,0,1,.39.16L73,14a.21.21,0,0,1-.22.19,1.73,1.73,0,0,1-.31-.05,2.89,2.89,0,0,0-.45,0,1.83,1.83,0,0,0-.64.11,1.36,1.36,0,0,0-.5.31,2,2,0,0,0-.39.5,4.44,4.44,0,0,0-.32.69v4.76Z"/><path class="cls-3" d="M83.67,20.45H81.93a.71.71,0,0,1-.47-.14.79.79,0,0,1-.27-.35l-.73-2.06h-4.3L75.43,20a.84.84,0,0,1-.26.34.73.73,0,0,1-.47.15H73l4.22-10.8h2.28Zm-7-4.1h3.22l-1.17-3.3c-.07-.18-.15-.38-.22-.61s-.16-.49-.23-.76c-.07.28-.14.53-.22.77s-.14.44-.21.61Z"/><path class="cls-3" d="M84.38,20.45V12.78h1.27a.5.5,0,0,1,.51.36l.12.49.41-.38a2.32,2.32,0,0,1,.46-.31,2.25,2.25,0,0,1,.53-.21,2.45,2.45,0,0,1,.62-.07,1.72,1.72,0,0,1,1.17.38,2.29,2.29,0,0,1,.7,1,2.33,2.33,0,0,1,.46-.63,2.28,2.28,0,0,1,.6-.43,2.62,2.62,0,0,1,.68-.24,3.55,3.55,0,0,1,.73-.08,3.1,3.1,0,0,1,1.14.19,2.16,2.16,0,0,1,.84.57,2.51,2.51,0,0,1,.52.92,4,4,0,0,1,.18,1.24v4.87H93.26V15.58c0-.9-.38-1.35-1.15-1.35a1.24,1.24,0,0,0-.48.09,1,1,0,0,0-.39.25A1.24,1.24,0,0,0,91,15a1.68,1.68,0,0,0-.09.58v4.87H88.83V15.58a1.51,1.51,0,0,0-.28-1,1.1,1.1,0,0,0-.85-.31,1.42,1.42,0,0,0-.67.17,2.1,2.1,0,0,0-.59.46v5.59Z"/><path class="cls-3" d="M99.3,10.6a1.13,1.13,0,0,1-.11.48,1.38,1.38,0,0,1-.28.4,1.2,1.2,0,0,1-.4.26,1.25,1.25,0,0,1-.51.1,1.12,1.12,0,0,1-.48-.1,1.31,1.31,0,0,1-.4-.26,1.56,1.56,0,0,1-.27-.4,1.23,1.23,0,0,1,0-1,1.27,1.27,0,0,1,.67-.67A1.28,1.28,0,0,1,98,9.35a1.44,1.44,0,0,1,.51.09,1.41,1.41,0,0,1,.4.27,1.38,1.38,0,0,1,.28.4A1.14,1.14,0,0,1,99.3,10.6Zm-.25,2.18v7.67H97V12.78Z"/><path class="cls-3" d="M103.67,12.64a4.55,4.55,0,0,1,.92.1,3.78,3.78,0,0,1,.8.29h2.26v.75a.39.39,0,0,1-.1.29.63.63,0,0,1-.33.15l-.63.13a2.2,2.2,0,0,1,.13.78,2.17,2.17,0,0,1-.24,1,2.2,2.2,0,0,1-.64.78,2.87,2.87,0,0,1-1,.5,3.87,3.87,0,0,1-1.2.18l-.4,0-.38,0a.51.51,0,0,0-.3.41.33.33,0,0,0,.21.32,1.85,1.85,0,0,0,.56.13c.23,0,.49,0,.79.06s.59,0,.9,0,.6.07.9.13a2.77,2.77,0,0,1,.79.31,1.76,1.76,0,0,1,.56.56,1.74,1.74,0,0,1,.21.9,2.13,2.13,0,0,1-.26,1,2.56,2.56,0,0,1-.73.86,3.55,3.55,0,0,1-1.18.61,4.88,4.88,0,0,1-1.59.23,6.39,6.39,0,0,1-1.54-.16,3.58,3.58,0,0,1-1.08-.45,1.91,1.91,0,0,1-.63-.64,1.53,1.53,0,0,1-.21-.76,1.24,1.24,0,0,1,.31-.87,2.21,2.21,0,0,1,.86-.58,1.3,1.3,0,0,1-.47-.43,1.24,1.24,0,0,1-.17-.68,1.36,1.36,0,0,1,.25-.72,1.9,1.9,0,0,1,.77-.63,2.4,2.4,0,0,1-.93-.85,2.15,2.15,0,0,1-.34-1.22,2.17,2.17,0,0,1,.89-1.82,2.92,2.92,0,0,1,1-.5A4.4,4.4,0,0,1,103.67,12.64Zm1.94,8.13a.42.42,0,0,0-.13-.33.75.75,0,0,0-.34-.2,2.07,2.07,0,0,0-.5-.11l-.62-.05-.68,0c-.23,0-.46,0-.68-.05a1.58,1.58,0,0,0-.43.37.75.75,0,0,0-.16.48.77.77,0,0,0,.08.34.69.69,0,0,0,.29.27,2.17,2.17,0,0,0,.53.18,4.67,4.67,0,0,0,.82.06,4.16,4.16,0,0,0,.85-.07,1.81,1.81,0,0,0,.57-.19.8.8,0,0,0,.31-.29A.81.81,0,0,0,105.61,20.77Zm-1.94-4.44a1.23,1.23,0,0,0,.93-.32,1.16,1.16,0,0,0,.3-.83,1.13,1.13,0,0,0-.3-.83,1.59,1.59,0,0,0-1.86,0,1.13,1.13,0,0,0-.3.83,1.15,1.15,0,0,0,.3.82A1.2,1.2,0,0,0,103.67,16.33Z"/><path class="cls-3" d="M112,12.66a4.35,4.35,0,0,1,1.57.27,3.38,3.38,0,0,1,2,2,4.7,4.7,0,0,1,.27,1.64,4.76,4.76,0,0,1-.27,1.65,3.69,3.69,0,0,1-.78,1.25,3.62,3.62,0,0,1-1.22.79,4.35,4.35,0,0,1-1.57.27,4.4,4.4,0,0,1-1.58-.27,3.47,3.47,0,0,1-1.22-.79,3.54,3.54,0,0,1-.78-1.25,4.53,4.53,0,0,1-.28-1.65,4.48,4.48,0,0,1,.28-1.64,3.5,3.5,0,0,1,.78-1.24,3.62,3.62,0,0,1,1.22-.79A4.4,4.4,0,0,1,112,12.66ZM112,19a1.47,1.47,0,0,0,1.3-.6,3.12,3.12,0,0,0,.43-1.81,3.11,3.11,0,0,0-.43-1.8,1.47,1.47,0,0,0-1.3-.6,1.5,1.5,0,0,0-1.32.6,3.11,3.11,0,0,0-.43,1.8,3.12,3.12,0,0,0,.43,1.81A1.5,1.5,0,0,0,112,19Z"/></g></g></svg>